<svg width="35" height="35" viewBox="0 0 35 35" fill="none" xmlns="http://www.w3.org/2000/svg">
<path d="M23 19.4351C22.9719 20.8678 22.5224 22.1365 21.5392 23.1591C18.8283 25.9811 16.1034 28.7885 13.3785 31.6008C12.8588 32.1363 12.1471 32.1314 11.6274 31.596C8.93057 28.803 6.215 26.0293 3.54158 23.2122C2.08079 21.6686 1.64068 19.7969 2.29616 17.742C2.96101 15.6677 4.40775 14.4473 6.49124 14.0807C8.9493 13.6514 11.3886 15.195 12.222 17.6551C12.2267 17.6648 12.2267 17.6696 12.2267 17.6793C12.2735 17.824 12.3157 17.9783 12.5123 17.9735C12.6949 17.9687 12.737 17.824 12.7792 17.6841C12.9899 17.0377 13.2942 16.4395 13.7343 15.933C15.1764 14.2736 16.9789 13.6369 19.0718 14.2013C21.1834 14.7705 22.4522 16.2466 22.9064 18.4511C22.9719 18.7743 23 19.1023 23 19.4351Z" fill="#2A79CC"/>
<rect x="15" y="1" width="19" height="19" rx="9.5" fill="#EDD258" stroke="#E8EFF5" stroke-width="2"/>
<path d="M24.4461 11.36C24.6061 11.22 24.7828 11.0667 24.9761 10.9C25.1761 10.7333 25.3628 10.56 25.5361 10.38C25.7161 10.1933 25.8628 9.99333 25.9761 9.78C26.0961 9.56667 26.1561 9.33667 26.1561 9.09C26.1561 8.73 26.0494 8.44 25.8361 8.22C25.6228 8 25.3161 7.89 24.9161 7.89C24.5961 7.89 24.3261 7.96333 24.1061 8.11C23.8861 8.25667 23.7494 8.45333 23.6961 8.7H22.5561C22.5828 8.39333 22.6661 8.12 22.8061 7.88C22.9528 7.64 23.1361 7.44333 23.3561 7.29C23.5761 7.13667 23.8161 7.02667 24.0761 6.96C24.3428 6.88667 24.6461 6.85 24.9861 6.85C25.3061 6.85 25.6061 6.89333 25.8861 6.98C26.1661 7.06667 26.4094 7.19667 26.6161 7.37C26.8294 7.54333 26.9961 7.76333 27.1161 8.03C27.2428 8.29 27.3061 8.59667 27.3061 8.95C27.3061 9.23 27.2694 9.48667 27.1961 9.72C27.1228 9.95333 27.0228 10.17 26.8961 10.37C26.7694 10.57 26.6228 10.7567 26.4561 10.93C26.2961 11.1033 26.1261 11.2667 25.9461 11.42C25.7061 11.6267 25.4928 11.8067 25.3061 11.96C25.1261 12.1067 24.9628 12.24 24.8161 12.36C24.6694 12.48 24.5361 12.59 24.4161 12.69C24.2961 12.7833 24.1828 12.8767 24.0761 12.97H27.3061V14H22.4961V13.05L24.4461 11.36Z" fill="#0E192E"/>
</svg>
